# Blender v2.82 (sub 7) OBJ File: 'walls_with_doors.blend'
# www.blender.org
mtllib half_wall_vertical.mtl
o Wall.019_Cube.028
v 0.125000 0.000000 -2.625000
v 0.125000 1.500000 -2.625000
v 0.125000 0.000000 2.625000
v 0.125000 1.500000 2.625000
v -0.125000 0.000000 -2.625000
v -0.125000 1.500000 -2.625000
v -0.125000 0.000000 2.625000
v -0.125000 1.500000 2.625000
vt 0.472831 0.090306
vt 0.472831 0.096257
vt 0.478781 0.096257
vt 0.478781 0.090306
vt 0.466880 0.096257
vt 0.466880 0.102207
vt 0.472831 0.102207
vt 0.466880 0.078405
vt 0.466880 0.084356
vt 0.472831 0.084356
vt 0.472831 0.078405
vt 0.460930 0.090306
vt 0.460930 0.096257
vt 0.466880 0.090306
vt 0.467484 0.099667
vt 0.467484 0.100133
vt 0.467951 0.100133
vt 0.467951 0.099667
vn 0.0000 -1.0000 0.0000
vn 0.0000 0.0000 1.0000
vn -1.0000 0.0000 0.0000
vn 0.0000 1.0000 0.0000
vn 1.0000 0.0000 0.0000
vn 0.0000 0.0000 -1.0000
usemtl InteriorPack_01.001
s off
f 1/1/1 3/2/1 7/3/1 5/4/1
f 4/5/2 8/6/2 7/7/2 3/2/2
f 8/8/3 6/9/3 5/10/3 7/11/3
f 6/12/4 8/13/4 4/5/4 2/14/4
f 2/15/5 4/16/5 3/17/5 1/18/5
f 6/9/6 2/14/6 1/1/6 5/10/6
